<mxfile host="app.diagrams.net" modified="2020-07-18T09:38:44.374Z" agent="5.0 (Macintosh; Intel Mac OS X 10_15_5) AppleWebKit/537.36 (KHTML, like Gecko) Chrome/83.0.4103.116 Safari/537.36" etag="mfAs46ZdxQtC5aKzicMw" version="13.4.6" type="github">
  <diagram name="Page-1" id="822b0af5-4adb-64df-f703-e8dfc1f81529">
    <mxGraphModel dx="1351" dy="717" grid="1" gridSize="10" guides="1" tooltips="1" connect="1" arrows="1" fold="1" page="1" pageScale="1" pageWidth="1100" pageHeight="850" background="#ffffff" math="0" shadow="0">
      <root>
        <mxCell id="0" />
        <mxCell id="1" parent="0" />
        <mxCell id="5jflMPXMHZaIjsTYQOMV-1" value="数据库" style="verticalLabelPosition=bottom;aspect=fixed;html=1;verticalAlign=top;strokeColor=none;align=center;outlineConnect=0;shape=mxgraph.citrix.database;" vertex="1" parent="1">
          <mxGeometry x="680" y="360" width="42.5" height="50" as="geometry" />
        </mxCell>
        <mxCell id="5jflMPXMHZaIjsTYQOMV-5" style="edgeStyle=orthogonalEdgeStyle;rounded=0;orthogonalLoop=1;jettySize=auto;html=1;" edge="1" parent="1" source="5jflMPXMHZaIjsTYQOMV-6" target="5jflMPXMHZaIjsTYQOMV-1">
          <mxGeometry relative="1" as="geometry" />
        </mxCell>
        <mxCell id="5jflMPXMHZaIjsTYQOMV-2" value="浏览器" style="verticalLabelPosition=bottom;aspect=fixed;html=1;verticalAlign=top;strokeColor=none;align=center;outlineConnect=0;shape=mxgraph.citrix.desktop;" vertex="1" parent="1">
          <mxGeometry x="461" y="186.59" width="89" height="98" as="geometry" />
        </mxCell>
        <mxCell id="5jflMPXMHZaIjsTYQOMV-4" style="edgeStyle=orthogonalEdgeStyle;rounded=0;orthogonalLoop=1;jettySize=auto;html=1;" edge="1" parent="1" source="5jflMPXMHZaIjsTYQOMV-3" target="5jflMPXMHZaIjsTYQOMV-2">
          <mxGeometry relative="1" as="geometry" />
        </mxCell>
        <mxCell id="5jflMPXMHZaIjsTYQOMV-3" value="" style="verticalLabelPosition=bottom;aspect=fixed;html=1;verticalAlign=top;strokeColor=none;align=center;outlineConnect=0;shape=mxgraph.citrix.users;" vertex="1" parent="1">
          <mxGeometry x="330" y="210" width="60" height="51.17" as="geometry" />
        </mxCell>
        <mxCell id="5jflMPXMHZaIjsTYQOMV-6" value="" style="verticalLabelPosition=bottom;aspect=fixed;html=1;verticalAlign=top;strokeColor=none;align=center;outlineConnect=0;shape=mxgraph.citrix.security;" vertex="1" parent="1">
          <mxGeometry x="620" y="186.59" width="40.5" height="71" as="geometry" />
        </mxCell>
        <mxCell id="5jflMPXMHZaIjsTYQOMV-7" style="edgeStyle=orthogonalEdgeStyle;rounded=0;orthogonalLoop=1;jettySize=auto;html=1;" edge="1" parent="1" source="5jflMPXMHZaIjsTYQOMV-2" target="5jflMPXMHZaIjsTYQOMV-6">
          <mxGeometry relative="1" as="geometry">
            <mxPoint x="549.9999999999998" y="235.57142857142856" as="sourcePoint" />
            <mxPoint x="701.2857142857142" y="360" as="targetPoint" />
          </mxGeometry>
        </mxCell>
      </root>
    </mxGraphModel>
  </diagram>
</mxfile>
